<svg width="55" height="55" viewBox="0 0 55 55" fill="none" xmlns="http://www.w3.org/2000/svg">
    <path d="M44.6875 6.875H10.3125C9.40082 6.875 8.52648 7.23716 7.88182 7.88182C7.23716 8.52648 6.875 9.40082 6.875 10.3125V44.6875C6.875 45.5992 7.23716 46.4735 7.88182 47.1182C8.52648 47.7628 9.40082 48.125 10.3125 48.125H44.6875C45.5992 48.125 46.4735 47.7628 47.1182 47.1182C47.7628 46.4735 48.125 45.5992 48.125 44.6875V10.3125C48.125 9.40082 47.7628 8.52648 47.1182 7.88182C46.4735 7.23716 45.5992 6.875 44.6875 6.875ZM10.3125 44.6875V10.3125H44.6875V44.6875H10.3125Z" fill="#2E3A59"/>
    <path d="M24.0625 36.9531L15.4688 28.4281L18.2016 25.7812L24.0625 31.5391L36.7984 18.9062L39.5312 21.6219L24.0625 36.9531Z" fill="#2E3A59"/>
</svg>
