<svg width="40" height="40" viewBox="0 0 40 40" fill="none" xmlns="http://www.w3.org/2000/svg">
    <path d="M36.6673 31.6667V15C36.6673 14.1159 36.3161 13.2681 35.691 12.643C35.0659 12.0179 34.218 11.6667 33.334 11.6667H22.0607C21.4415 11.6666 20.8346 11.4942 20.3079 11.1686C19.7813 10.843 19.3557 10.3772 19.079 9.82333L17.589 6.84333C17.3121 6.28922 16.8863 5.82323 16.3593 5.49763C15.8324 5.17203 15.2251 4.99971 14.6057 5H6.66732C5.78326 5 4.93542 5.35119 4.3103 5.97631C3.68517 6.60143 3.33398 7.44928 3.33398 8.33333V31.6667C3.33398 32.5507 3.68517 33.3986 4.3103 34.0237C4.93542 34.6488 5.78326 35 6.66732 35H33.334C34.218 35 35.0659 34.6488 35.691 34.0237C36.3161 33.3986 36.6673 32.5507 36.6673 31.6667Z" stroke="#8F9BB3" stroke-width="2" stroke-linecap="round" stroke-linejoin="round"/>
</svg>
