<svg id="Слой_1" data-name="Слой 1" xmlns="http://www.w3.org/2000/svg" viewBox="0 0 681.68 812.31"><defs><style>.cls-1,.cls-3,.cls-4{fill:none;stroke:#008a0e;stroke-miterlimit:10;}.cls-1{stroke-width:16px;}.cls-2{fill:#008a0e;}.cls-3{stroke-width:14px;}.cls-4{stroke-width:13px;}</style></defs><rect class="cls-1" x="155.91" y="224.38" width="369.86" height="579.94" rx="181.39"/><line class="cls-1" x1="155.91" y1="409.31" x2="525.77" y2="409.31"/><path class="cls-2" d="M659.06,294.35c0-13.12-.27-25.44.12-37.74.17-5.26-1.7-8.68-5.41-12.19-37-35-80.57-56-131.25-61.2C461.37,177,407,194.39,359.09,232.5a179.81,179.81,0,0,0-15.84,14.12,12.07,12.07,0,0,0-3.21,7.46c-.34,11.24-.15,22.5-.15,33.75v6.71c-14.58-3.85-41.34-7.48-55.68-11.27a51.76,51.76,0,0,0-.58,5.27c-.05,10.89-.21,21.79.12,32.67a10,10,0,0,0,3.26,6.65c11.31,9.21,11.46,24.23.05,33.18-5.08,4-4.91,11.13.25,15.38a4.69,4.69,0,0,1,1.26,2.78c2.63,17.95,5.5,35.87,7.66,53.87,1.33,11.09-5.56,20.27-15.92,22.84-10.11,2.51-20.92-2.49-24.54-12.24a29.24,29.24,0,0,1-1.33-13.28c2.06-16.74,4.68-33.41,7.13-50.1.18-1.22.21-2.77.95-3.57,6.29-6.81,6.14-10.67-.89-17-9.25-8.34-9.25-22.89.59-30.57,3.69-2.89,4.59-5.81,4.58-10.09q-.17-73.78-.06-147.57c0-10.22,1.16-11.4,11.17-11.41,15.43,0,43.86.11,59.28-.09a28,28,0,0,0,10-1.95q69.49-28.5,138.87-57.34a33,33,0,0,1,26.82,0q159.17,66,318.43,131.64c.84.34,1.67.7,2.52,1,3.58,1.37,6.73,3.23,6.47,7.67s-3.52,5.92-7.27,6.9c-9.83,2.57-19.64,5.24-29.45,7.88l-137.7,37C664,293.32,662.05,293.68,659.06,294.35Z" transform="translate(-158.64 -97.84)"/><path class="cls-2" d="M367.14,335.1v-22c0-15.61.1-31.22-.07-46.82A10.59,10.59,0,0,1,371,257.4c73.14-64.46,183.49-64.57,256.6,0,2,1.8,4,5,4,7.57.31,21.77.18,43.54.16,65.32,0,1.19-.24,2.38-.47,4.47-40.79-25.34-84.65-38.3-132-38.26C452.17,296.53,408.44,309.35,367.14,335.1Z" transform="translate(-158.64 -97.84)"/><path class="cls-2" d="M252.22,271c-14.71-3.93-28.71-7.64-42.69-11.4-14.2-3.8-28.38-7.68-42.58-11.45-4-1.06-8-2.13-8.3-7.18-.27-4.76,3.33-6.36,7-7.87q40.77-16.81,81.51-33.68c1.46-.6,3-1,5.07-1.76Z" transform="translate(-158.64 -97.84)"/><rect class="cls-1" x="311.51" y="284.02" width="58.66" height="87.16" rx="12.74"/><line class="cls-3" x1="340.84" y1="224.38" x2="340.84" y2="284.02"/><line class="cls-1" x1="340.81" y1="409.31" x2="340.81" y2="371.18"/><circle class="cls-4" cx="363.67" cy="684.33" r="16.29"/><circle class="cls-4" cx="423.79" cy="653.43" r="17.97"/><circle class="cls-4" cx="444.99" cy="584.65" r="19.26"/><circle class="cls-4" cx="422.43" cy="515.68" r="20.88"/><circle class="cls-4" cx="364.12" cy="483.68" r="19.14"/><polyline class="cls-4" points="406.68 529.37 387.46 549.62 347.38 549.62"/><line class="cls-4" x1="425.73" y1="584.65" x2="347.38" y2="584.65"/><polyline class="cls-4" points="409.75 642.22 386.56 617.36 347.38 617.36"/><path class="cls-4" d="M485.25,760.53c0,18-12.61,34.59-30.61,34.59a32.62,32.62,0,0,1-32.25-27.8,34.51,34.51,0,0,1-37.83-51,31.64,31.64,0,0,1,3.87-52.75,24,24,0,0,1,20-41.9,22.72,22.72,0,0,1,21.92-28.58,22.6,22.6,0,0,1,14.85,5.55,20.13,20.13,0,0,1,40.12,2.44Z" transform="translate(-158.64 -97.84)"/></svg>